<?xml version="1.0" encoding="utf-8"?>
<!-- Generator: Adobe Illustrator 18.0.0, SVG Export Plug-In . SVG Version: 6.00 Build 0)  -->
<!DOCTYPE svg PUBLIC "-//W3C//DTD SVG 1.1//EN" "http://www.w3.org/Graphics/SVG/1.1/DTD/svg11.dtd">
<svg version="1.1" id="Isolation_Mode" xmlns="http://www.w3.org/2000/svg" xmlns:xlink="http://www.w3.org/1999/xlink" x="0px"
	 y="0px" viewBox="0 0 40 35.8" enable-background="new 0 0 40 35.8" xml:space="preserve">
<polygon points="0.3,30.3 0.3,22.8 1.5,22.8 1.5,29.2 3.2,29.2 3.2,30.3 "/>
<rect x="3.9" y="22.8" width="1.2" height="7.5"/>
<polygon points="12.9,30.3 12.9,27 11.6,27 11.6,30.3 10.5,30.3 10.5,22.8 11.6,22.8 11.6,25.9 12.9,25.9 12.9,22.8 14.1,22.8 
	14.1,30.3 "/>
<polygon points="17.2,23.9 17.2,30.3 16,30.3 16,23.9 14.8,23.9 14.8,22.8 18.3,22.8 18.3,23.9 "/>
<polygon points="21.6,30.3 21.6,27 20.3,27 20.3,30.3 19.2,30.3 19.2,22.8 20.3,22.8 20.3,25.9 21.6,25.9 21.6,22.8 22.8,22.8 
	22.8,30.3 "/>
<path d="M26.1,24.3c0-0.4-0.2-0.6-0.6-0.6c-0.4,0-0.6,0.2-0.6,0.6v4.4c0,0.4,0.2,0.6,0.6,0.6c0.4,0,0.6-0.2,0.6-0.6V24.3z
	 M25.5,30.4c-1.1,0-1.8-0.7-1.8-1.8v-4.2c0-1,0.7-1.8,1.8-1.8c1.1,0,1.8,0.7,1.8,1.8v4.2C27.3,29.7,26.6,30.4,25.5,30.4"/>
<path d="M30,30.4c-1,0-1.8-0.7-1.8-1.7v-5.9h1.2v5.9c0,0.4,0.2,0.6,0.6,0.6c0.4,0,0.6-0.2,0.6-0.6v-5.9h1.2v5.9
	C31.7,29.7,31,30.4,30,30.4"/>
<path d="M34.2,30.4c-1.1,0-1.8-0.7-1.8-1.7v-0.3h1.1v0.2c0,0.5,0.2,0.7,0.6,0.7c0.4,0,0.6-0.3,0.6-0.7c0-0.7-0.3-1.1-1-1.8
	c-0.6-0.6-1.3-1.5-1.3-2.4c0-1,0.6-1.8,1.7-1.8c1,0,1.6,0.7,1.6,1.7v0.3h-1.1v-0.3c0-0.4-0.2-0.7-0.6-0.7c-0.3,0-0.6,0.2-0.6,0.6
	c0,0.7,0.3,1.1,1,1.8c0.7,0.8,1.3,1.5,1.3,2.4C35.9,29.7,35.2,30.4,34.2,30.4"/>
<polygon points="36.6,30.3 36.6,22.8 39.6,22.8 39.6,23.8 37.8,23.8 37.8,25.7 39,25.7 39,26.7 37.8,26.7 37.8,29.2 39.6,29.2 
	39.6,30.3 "/>
<path d="M7.7,30.4c-1,0-1.8-0.6-1.8-1.7v-4.3c0-0.9,0.7-1.7,1.8-1.7c1.1,0,1.7,0.8,1.7,1.7v0.3H8.4v-0.3c0-0.3-0.2-0.6-0.6-0.6
	c-0.4,0-0.6,0.3-0.6,0.6v4.4c0,0.3,0.2,0.6,0.6,0.6c0.4,0,0.6-0.3,0.6-0.6V27H7.8v-1.1h1.7v2.6C9.5,30,8.8,30.4,7.7,30.4"/>
<path d="M7.4,34.4c0-0.2-0.1-0.3-0.4-0.3H6.5v0.7h0.6C7.3,34.8,7.4,34.6,7.4,34.4L7.4,34.4z M7.4,33.3c0-0.2-0.1-0.3-0.3-0.3H6.5
	v0.7h0.6C7.3,33.7,7.4,33.6,7.4,33.3L7.4,33.3z M7.2,35.3H5.7v-2.9h1.5c0.6,0,0.9,0.3,0.9,0.8v0.1c0,0.3-0.2,0.6-0.5,0.6
	c0.4,0.1,0.6,0.3,0.6,0.6v0.1C8.2,35,7.8,35.3,7.2,35.3"/>
<polygon points="11.8,35.3 11.8,32.4 14.1,32.4 14.1,33 12.6,33 12.6,33.6 13.6,33.6 13.6,34.1 12.6,34.1 12.6,34.7 14.1,34.7 
	14.1,35.3 "/>
<polygon points="18,35.3 17.3,35.3 16.7,33.5 16.1,35.3 15.4,35.3 14.5,32.4 15.3,32.4 15.8,34.4 16.4,32.4 17.1,32.4 17.7,34.4 
	18.2,32.4 18.9,32.4 "/>
<rect x="19.3" y="32.4" width="0.8" height="2.9"/>
<polygon points="22.7,35.3 21.6,33.9 21.4,33.6 21.4,35.3 20.7,35.3 20.7,32.4 21.3,32.4 22.4,33.9 22.6,34.2 22.6,32.4 23.3,32.4 
	23.3,35.3 "/>
<path d="M33.4,33.5c0-0.3-0.2-0.6-0.6-0.6c-0.4,0-0.6,0.2-0.6,0.6v0.7c0,0.3,0.2,0.6,0.6,0.6c0.4,0,0.6-0.2,0.6-0.6V33.5z
	 M32.8,35.4c-0.8,0-1.4-0.5-1.4-1.2v-0.6c0-0.7,0.5-1.2,1.4-1.2c0.8,0,1.4,0.5,1.4,1.2v0.6C34.1,34.9,33.6,35.4,32.8,35.4"/>
<path d="M26.5,34.4c-0.1,0.5-0.4,1-1.3,1c-0.8,0-1.4-0.5-1.4-1.2v-0.6c0-0.7,0.5-1.2,1.4-1.2c0.8,0,1.3,0.5,1.3,1
	c-0.1,0-0.6,0-0.7,0c0-0.2-0.2-0.4-0.6-0.4c-0.4,0-0.6,0.3-0.6,0.6v0.6c0,0.3,0.2,0.6,0.6,0.6c0.3,0,0.6-0.2,0.6-0.5v0h-0.5v-0.5
	h1.2C26.5,34,26.6,34.3,26.5,34.4"/>
<path d="M29.7,34.8c-0.4,0-0.6-0.3-0.6-0.6v-0.6c0-0.3,0.2-0.6,0.6-0.6c0.3,0,0.6,0.1,0.6,0.4c0.1,0,0.6,0,0.7,0c0-0.5-0.4-1-1.3-1
	c-0.8,0-1.4,0.5-1.4,1.2v0.6c0,0.7,0.6,1.2,1.4,1.2c0.8,0,1.3-0.5,1.3-1c-0.1,0-0.6,0-0.7,0C30.3,34.6,30.1,34.8,29.7,34.8"/>
<path d="M9.5,33H10c0.3,0,0.4,0.1,0.4,0.3v0.1c0,0.2-0.1,0.3-0.4,0.3H9.5V33z M11.2,35.3l-0.5-1.2c0.2-0.1,0.4-0.3,0.4-0.8v-0.1
	c0-0.4-0.3-0.8-1-0.8H8.7v2.9h0.8v-1.1H10l0.4,1.1H11.2z"/>
<polygon points="22.1,1.4 22.8,2.4 20.1,2.4 20.1,0.4 22.8,0.4 "/>
<path d="M22.8,9.6l-1.1,0V6.2l1.1,0V9.6z M21.3,9.6l-1.1,0V6.2h1.1V9.6z M20,11.9h-0.4v-1.5H20V11.9z M19.1,11.9h-0.4v-1.5l0.4,0
	V11.9z M18.7,6.2h1v3.4h-1V6.2z M18.3,11.9h-0.4v-1.5h0.4V11.9z M17.5,11.9h-0.4v-1.5h0.4V11.9z M17.1,6.2l1.1,0v3.4l-1.1,0V6.2z
	 M19.8,4v1.8l-2.4,0C17.5,5.3,18.1,4.1,19.8,4 M16.7,11.9h-0.4v-1.5h0.4V11.9z M15.9,11.9h-0.4v-1.5l0.4,0V11.9z M25.3,10.1
	c0-0.2-0.2-0.4-0.4-0.4h-1.6V5.9c0,0,0-0.1,0-0.1c0,0,0,0,0,0c0,0-0.1-0.6-0.6-1.2c-0.4-0.6-1.2-1.1-2.5-1.2h0v-3h-0.4v3
	c-1.2,0.1-2,0.6-2.4,1.2c-0.5,0.6-0.6,1.2-0.6,1.2c0,0,0,0,0,0c0,0,0,0.1,0,0.1v3.7l-1.5,0c-0.2,0-0.4,0.2-0.4,0.4v2.1
	c0,0.2,0.2,0.4,0.4,0.4h1.4l-0.9,8h0.8l0.9-8H20v1.9h-0.9v1.4H20v1.5h-0.9v1.4H20v1.7l4.4,0l-1-8h1.4c0.2,0,0.4-0.2,0.4-0.4
	L25.3,10.1L25.3,10.1z"/>
</svg>
