<?xml version="1.0" encoding="utf-8"?>
<!-- Generator: Adobe Illustrator 18.0.0, SVG Export Plug-In . SVG Version: 6.00 Build 0)  -->
<!DOCTYPE svg PUBLIC "-//W3C//DTD SVG 1.1//EN" "http://www.w3.org/Graphics/SVG/1.1/DTD/svg11.dtd">
<svg version="1.1" id="Isolation_Mode" xmlns="http://www.w3.org/2000/svg" xmlns:xlink="http://www.w3.org/1999/xlink" x="0px"
	 y="0px" viewBox="0 0 39.8 8.3" enable-background="new 0 0 39.8 8.3" xml:space="preserve">
<polygon fill="#FFFFFF" points="0.2,7.9 0.2,0.4 1.4,0.4 1.4,6.8 3.1,6.8 3.1,7.9 "/>
<rect x="3.8" y="0.4" fill="#FFFFFF" width="1.2" height="7.5"/>
<polygon fill="#FFFFFF" points="12.8,7.9 12.8,4.5 11.5,4.5 11.5,7.9 10.3,7.9 10.3,0.4 11.5,0.4 11.5,3.5 12.8,3.5 12.8,0.4 
	14,0.4 14,7.9 "/>
<polygon fill="#FFFFFF" points="17.1,1.5 17.1,7.9 15.9,7.9 15.9,1.5 14.7,1.5 14.7,0.4 18.2,0.4 18.2,1.5 "/>
<polygon fill="#FFFFFF" points="21.5,7.9 21.5,4.5 20.2,4.5 20.2,7.9 19,7.9 19,0.4 20.2,0.4 20.2,3.5 21.5,3.5 21.5,0.4 22.7,0.4 
	22.7,7.9 "/>
<path fill="#FFFFFF" d="M26,1.9c0-0.4-0.2-0.6-0.6-0.6c-0.4,0-0.6,0.2-0.6,0.6v4.4c0,0.4,0.2,0.6,0.6,0.6c0.4,0,0.6-0.2,0.6-0.6V1.9
	z M25.4,8c-1.1,0-1.8-0.7-1.8-1.8V2c0-1,0.7-1.8,1.8-1.8c1.1,0,1.8,0.7,1.8,1.8v4.2C27.2,7.3,26.5,8,25.4,8"/>
<path fill="#FFFFFF" d="M29.9,8c-1,0-1.8-0.7-1.8-1.7V0.4h1.2v5.9c0,0.4,0.2,0.6,0.6,0.6c0.4,0,0.6-0.2,0.6-0.6V0.4h1.2v5.9
	C31.6,7.3,30.9,8,29.9,8"/>
<path fill="#FFFFFF" d="M34.1,8c-1.1,0-1.8-0.7-1.8-1.7V6h1.1v0.2C33.4,6.7,33.6,7,34,7c0.4,0,0.6-0.3,0.6-0.7c0-0.7-0.3-1.1-1-1.8
	c-0.6-0.6-1.3-1.5-1.3-2.4c0-1,0.6-1.8,1.7-1.8c1,0,1.6,0.7,1.6,1.7v0.3h-1.1V2c0-0.4-0.2-0.7-0.6-0.7c-0.3,0-0.6,0.2-0.6,0.6
	c0,0.7,0.3,1.1,1,1.8c0.7,0.8,1.3,1.5,1.3,2.4C35.8,7.3,35,8,34.1,8"/>
<polygon fill="#FFFFFF" points="36.5,7.9 36.5,0.4 39.5,0.4 39.5,1.4 37.7,1.4 37.7,3.3 38.9,3.3 38.9,4.3 37.7,4.3 37.7,6.8 
	39.5,6.8 39.5,7.9 "/>
<path fill="#FFFFFF" d="M7.6,8c-1,0-1.8-0.6-1.8-1.7V2c0-0.9,0.7-1.7,1.8-1.7C8.7,0.2,9.3,1,9.3,2v0.3H8.3V1.9
	c0-0.3-0.2-0.6-0.6-0.6C7.2,1.3,7,1.6,7,1.9v4.4c0,0.3,0.2,0.6,0.6,0.6c0.4,0,0.6-0.3,0.6-0.6V4.6H7.6V3.5h1.7V6
	C9.4,7.6,8.7,8,7.6,8"/>
</svg>
