<?xml version="1.0" encoding="utf-8"?>
<!-- Generator: Adobe Illustrator 18.0.0, SVG Export Plug-In . SVG Version: 6.00 Build 0)  -->
<!DOCTYPE svg PUBLIC "-//W3C//DTD SVG 1.1//EN" "http://www.w3.org/Graphics/SVG/1.1/DTD/svg11.dtd">
<svg version="1.1" id="Isolation_Mode" xmlns="http://www.w3.org/2000/svg" xmlns:xlink="http://www.w3.org/1999/xlink" x="0px"
	 y="0px" viewBox="0 0 60 60" enable-background="new 0 0 60 60" xml:space="preserve">
<polygon fill="#FFFFFF" points="0.5,48.6 0.5,37.3 2.2,37.3 2.2,47 4.8,47 4.8,48.6 "/>
<rect x="5.9" y="37.3" fill="#FFFFFF" width="1.8" height="11.2"/>
<polygon fill="#FFFFFF" points="19.3,48.6 19.3,43.7 17.4,43.7 17.4,48.6 15.8,48.6 15.8,37.3 17.4,37.3 17.4,42 19.3,42 19.3,37.3 
	21.2,37.3 21.2,48.6 "/>
<polygon fill="#FFFFFF" points="25.8,39 25.8,48.6 24,48.6 24,39 22.2,39 22.2,37.3 27.4,37.3 27.4,39 "/>
<polygon fill="#FFFFFF" points="32.4,48.6 32.4,43.7 30.4,43.7 30.4,48.6 28.8,48.6 28.8,37.3 30.4,37.3 30.4,42 32.4,42 32.4,37.3 
	34.2,37.3 34.2,48.6 "/>
<path fill="#FFFFFF" d="M39.2,39.6c0-0.6-0.3-0.9-0.9-0.9s-0.9,0.3-0.9,0.9v6.6c0,0.6,0.3,0.9,0.9,0.9s0.9-0.3,0.9-0.9V39.6z
	 M38.2,48.8c-1.7,0-2.7-1-2.7-2.7v-6.3c0-1.5,1-2.7,2.7-2.7c1.7,0,2.7,1.1,2.7,2.7v6.3C40.9,47.7,39.9,48.8,38.2,48.8"/>
<path fill="#FFFFFF" d="M45,48.8c-1.5,0-2.7-1-2.7-2.5v-8.9h1.8v8.9c0,0.6,0.3,0.9,0.9,0.9c0.6,0,0.9-0.3,0.9-0.9v-8.9h1.8v8.9
	C47.6,47.7,46.5,48.8,45,48.8"/>
<path fill="#FFFFFF" d="M51.3,48.8c-1.7,0-2.7-1-2.7-2.5v-0.5h1.6v0.3c0,0.8,0.3,1,0.9,1c0.6,0,0.9-0.4,0.9-1c0-1.1-0.4-1.7-1.5-2.7
	c-0.9-0.9-1.9-2.2-1.9-3.6c0-1.5,0.9-2.7,2.5-2.7c1.5,0,2.4,1.1,2.4,2.6v0.4h-1.6v-0.4c0-0.6-0.3-1.1-0.9-1.1
	c-0.4,0-0.9,0.3-0.9,0.9c0,1.1,0.5,1.7,1.5,2.7c1,1.2,2,2.2,2,3.6C53.9,47.7,52.8,48.8,51.3,48.8"/>
<polygon fill="#FFFFFF" points="54.9,48.6 54.9,37.3 59.4,37.3 59.4,38.8 56.7,38.8 56.7,41.7 58.5,41.7 58.5,43.2 56.7,43.2 
	56.7,47 59.4,47 59.4,48.6 "/>
<path fill="#FFFFFF" d="M11.5,48.8c-1.5,0-2.7-0.9-2.7-2.5v-6.5c0-1.4,1.1-2.6,2.7-2.6c1.7,0,2.6,1.2,2.6,2.6v0.4h-1.5v-0.4
	c0-0.5-0.3-0.9-0.9-0.9c-0.6,0-0.9,0.4-0.9,0.9v6.6c0,0.4,0.3,0.9,0.9,0.9c0.6,0,0.9-0.5,0.9-0.9v-2.7h-0.9V42h2.5v3.9
	C14.2,48.2,13.2,48.8,11.5,48.8"/>
<path fill="#FFFFFF" d="M11.1,54.8c0-0.3-0.1-0.5-0.6-0.5H9.8v1.1h0.9C11,55.3,11.1,55,11.1,54.8L11.1,54.8z M11.1,53.1
	c0-0.3-0.1-0.4-0.5-0.4H9.8v1.1h0.9C11,53.7,11.1,53.5,11.1,53.1L11.1,53.1z M10.8,56.1H8.5v-4.3h2.2c0.9,0,1.4,0.4,1.4,1.2v0.1
	c0,0.5-0.3,0.9-0.8,0.9c0.6,0.1,0.9,0.4,0.9,0.9V55C12.3,55.7,11.7,56.1,10.8,56.1"/>
<polygon fill="#FFFFFF" points="17.7,56.1 17.7,51.8 21.2,51.8 21.2,52.7 18.9,52.7 18.9,53.5 20.4,53.5 20.4,54.3 18.9,54.3 
	18.9,55.2 21.2,55.2 21.2,56.1 "/>
<polygon fill="#FFFFFF" points="27,56.1 25.9,56.1 25.1,53.4 24.2,56.1 23.1,56.1 21.8,51.8 23,51.8 23.7,54.8 24.6,51.8 25.7,51.8 
	26.6,54.8 27.3,51.8 28.3,51.8 "/>
<rect x="29" y="51.8" fill="#FFFFFF" width="1.2" height="4.4"/>
<polygon fill="#FFFFFF" points="34.1,56.1 32.4,54 32.1,53.5 32.1,56.1 31.1,56.1 31.1,51.8 31.9,51.8 33.6,54 33.9,54.5 33.9,51.8 
	34.9,51.8 34.9,56.1 "/>
<path fill="#FFFFFF" d="M50.1,53.4c0-0.4-0.3-0.9-0.9-0.9c-0.6,0-0.9,0.3-0.9,0.9v1.1c0,0.4,0.3,0.9,0.9,0.9c0.6,0,0.9-0.3,0.9-0.9
	V53.4z M49.2,56.3c-1.2,0-2.1-0.8-2.1-1.8v-0.9c0-1,0.8-1.8,2.1-1.8c1.2,0,2.1,0.8,2.1,1.8v0.9C51.1,55.5,50.4,56.3,49.2,56.3"/>
<path fill="#FFFFFF" d="M39.8,54.8c-0.2,0.8-0.6,1.5-1.9,1.5c-1.2,0-2.1-0.8-2.1-1.8v-0.9c0-1,0.8-1.8,2.1-1.8
	c1.2,0,1.9,0.8,1.9,1.5c-0.2,0-0.9,0-1.1,0c0-0.3-0.3-0.6-0.9-0.6c-0.6,0-0.9,0.4-0.9,0.9v0.9c0,0.4,0.3,0.9,0.9,0.9
	c0.4,0,0.9-0.3,0.9-0.8l0,0h-0.8v-0.8h1.8C39.8,54.2,39.9,54.6,39.8,54.8"/>
<path fill="#FFFFFF" d="M44.6,55.3c-0.6,0-0.9-0.4-0.9-0.9v-0.9c0-0.4,0.3-0.9,0.9-0.9c0.4,0,0.9,0.1,0.9,0.6c0.2,0,0.9,0,1.1,0
	c0-0.8-0.6-1.5-2-1.5c-1.2,0-2.1,0.8-2.1,1.8v0.9c0,1,0.9,1.8,2.1,1.8c1.2,0,2-0.8,2-1.5c-0.2,0-0.9,0-1.1,0
	C45.4,55,45.2,55.3,44.6,55.3"/>
<path fill="#FFFFFF" d="M14.2,52.7H15c0.5,0,0.6,0.1,0.6,0.4v0.2c0,0.3-0.2,0.4-0.6,0.4h-0.8V52.7z M16.8,56.1L16,54.3
	c0.3-0.1,0.6-0.5,0.6-1.2V53c0-0.6-0.5-1.2-1.5-1.2H13v4.4h1.2v-1.6H15l0.6,1.6C15.6,56.1,16.8,56.1,16.8,56.1z"/>
<polygon fill="#FFFFFF" points="33.2,5.3 34.2,6.8 30.2,6.8 30.2,3.8 34.2,3.8 "/>
<path fill="#FFFFFF" d="M34.2,17.6h-1.6v-5.1h1.6V17.6z M31.9,17.6h-1.6v-5.1h1.6V17.6z M30,21h-0.6v-2.2H30V21z M28.7,21h-0.6v-2.2
	h0.6V21z M28.1,12.5h1.5v5.1h-1.5V12.5z M27.4,21h-0.6v-2.2h0.6V21z M26.2,21h-0.6v-2.2h0.6V21z M25.7,12.5h1.6v5.1h-1.6V12.5z
	 M29.7,9.2v2.7h-3.6C26.2,11.1,27.2,9.3,29.7,9.2 M25.1,21h-0.6v-2.2h0.6V21z M23.8,21h-0.6v-2.2h0.6V21z M37.9,18.3
	c0-0.3-0.3-0.6-0.6-0.6h-2.4V12v-0.1l0,0c0,0-0.1-0.9-0.9-1.8c-0.6-0.9-1.8-1.6-3.8-1.8l0,0V3.8h-0.6v4.5c-1.8,0.1-3,0.9-3.6,1.8
	c-0.8,0.9-0.9,1.8-0.9,1.8l0,0V12v5.6h-2.2c-0.3,0-0.6,0.3-0.6,0.6v3.2c0,0.3,0.3,0.6,0.6,0.6H25l-1.4,12h1.2l1.3-12H30v2.8h-1.3
	v2.1H30v2.2h-1.3v2.1H30v2.5h6.6l-1.5-12h2.1c0.3,0,0.6-0.3,0.6-0.6L37.9,18.3L37.9,18.3z"/>
</svg>
